# xmcd
#
# Track frame offsets: 
#        182
#        12085
#        24235
#        37220
#        50182
#        62447
#        75340
#        88850
#        101930
#        115542
#        128602
#        140720
#        151645
#        164640
#        178380
#        192075
#        206440
#        220375
#
# Disc length: 3123 seconds
#
# Revision: 3
# Processed by: cddbd v1.5.2PL0 Copyright (c) Steve Scherf et al.
# Submitted via: ExactAudioCopyFreeDBPlugin 1.0
#
DISCID=f70c3112
DTITLE=Bukka White - Parchman Farm Blues
DYEAR=1940
DGENRE=Blues
TTITLE0=Aberdeen Mississippi blues
TTITLE1=Bukka's jitterbug swing
TTITLE2=Special streamline
TTITLE3=High fever blues
TTITLE4=District attorney blues
TTITLE5=Fixin' to die blues
TTITLE6=Black train blues
TTITLE7=Strange place blues
TTITLE8=Where can I change my clothes
TTITLE9=Sleepy man blues
TTITLE10=Parchman farm blues
TTITLE11=Good gin blues
TTITLE12=Pinebluff Arkansas
TTITLE13=Shake 'em on down
TTITLE14=The New Frisco train
TTITLE15=The Panama limited
TTITLE16=I am in the heavenly way
TTITLE17=Promise true and grand
EXTD=YEAR: 1940
EXTT0=
EXTT1=
EXTT2=
EXTT3=
EXTT4=
EXTT5=
EXTT6=
EXTT7=
EXTT8=
EXTT9=
EXTT10=
EXTT11=
EXTT12=
EXTT13=
EXTT14=
EXTT15=
EXTT16=
EXTT17=
PLAYORDER=
